{
	"asset":{
		"generator":"Khronos glTF Blender I/O v4.1.62",
		"version":"2.0"
	},
	"scene":0,
	"scenes":[
		{
			"name":"Scene",
			"nodes":[
				0,
				1,
				2,
				3,
				4,
				5,
				6,
				7,
				8
			]
		}
	],
	"nodes":[
		{
			"mesh":0,
			"name":"Mesh_0",
			"translation":[
				-0.001617729663848877,
				0.008828286081552505,
				0.0050078341737389565
			]
		},
		{
			"mesh":1,
			"name":"Mesh_0.001",
			"rotation":[
				0,
				0,
				0.07108878344297409,
				0.9974700808525085
			],
			"translation":[
				0.004694834351539612,
				-0.04572306573390961,
				0.013074974529445171
			]
		},
		{
			"mesh":2,
			"name":"Mesh_0.002",
			"translation":[
				0.034830644726753235,
				-0.04819414019584656,
				0.01807146519422531
			]
		},
		{
			"mesh":3,
			"name":"Mesh_0.003",
			"rotation":[
				0,
				0,
				0.09773056954145432,
				0.9952129125595093
			],
			"translation":[
				-0.029051855206489563,
				-0.047559574246406555,
				0.01609695702791214
			]
		},
		{
			"mesh":4,
			"name":"Mesh_0.004",
			"translation":[
				0.028623266145586967,
				0.0129224993288517,
				0.007180498447269201
			]
		},
		{
			"mesh":5,
			"name":"Mesh_0.005",
			"rotation":[
				0,
				0,
				0.13554593920707703,
				0.9907711148262024
			],
			"translation":[
				0.06148955225944519,
				0.0032984567806124687,
				0.007183132693171501
			]
		},
		{
			"mesh":6,
			"name":"Mesh_0.006",
			"translation":[
				0.0589192658662796,
				-0.04373801127076149,
				0.018992964178323746
			]
		},
		{
			"mesh":7,
			"name":"Mesh_0.008",
			"rotation":[
				0,
				0,
				0.16148197650909424,
				0.9868756532669067
			],
			"translation":[
				-0.04981754720211029,
				-0.04883281886577606,
				0.017873002216219902
			]
		},
		{
			"mesh":8,
			"name":"Mesh_0.009",
			"rotation":[
				0,
				0,
				0.16973944008350372,
				0.985489010810852
			],
			"translation":[
				-0.040769293904304504,
				0.0114232636988163,
				0.016735190525650978
			]
		}
	],
	"animations":[
		{
			"channels":[
				{
					"sampler":0,
					"target":{
						"node":0,
						"path":"translation"
					}
				}
			],
			"name":"Mesh_0Action",
			"samplers":[
				{
					"input":35,
					"interpolation":"LINEAR",
					"output":36
				}
			]
		},
		{
			"channels":[
				{
					"sampler":0,
					"target":{
						"node":1,
						"path":"translation"
					}
				}
			],
			"name":"Mesh_0.001Action.002",
			"samplers":[
				{
					"input":37,
					"interpolation":"LINEAR",
					"output":38
				}
			]
		},
		{
			"channels":[
				{
					"sampler":0,
					"target":{
						"node":2,
						"path":"translation"
					}
				}
			],
			"name":"Mesh_0.002Action",
			"samplers":[
				{
					"input":37,
					"interpolation":"LINEAR",
					"output":39
				}
			]
		},
		{
			"channels":[
				{
					"sampler":0,
					"target":{
						"node":3,
						"path":"translation"
					}
				}
			],
			"name":"Mesh_0.003Action",
			"samplers":[
				{
					"input":37,
					"interpolation":"LINEAR",
					"output":40
				}
			]
		},
		{
			"channels":[
				{
					"sampler":0,
					"target":{
						"node":4,
						"path":"translation"
					}
				}
			],
			"name":"Mesh_0.004Action",
			"samplers":[
				{
					"input":41,
					"interpolation":"LINEAR",
					"output":42
				}
			]
		},
		{
			"channels":[
				{
					"sampler":0,
					"target":{
						"node":5,
						"path":"translation"
					}
				}
			],
			"name":"Mesh_0.005Action.002",
			"samplers":[
				{
					"input":41,
					"interpolation":"LINEAR",
					"output":43
				}
			]
		},
		{
			"channels":[
				{
					"sampler":0,
					"target":{
						"node":6,
						"path":"translation"
					}
				}
			],
			"name":"Mesh_0.006Action",
			"samplers":[
				{
					"input":37,
					"interpolation":"LINEAR",
					"output":44
				}
			]
		},
		{
			"channels":[
				{
					"sampler":0,
					"target":{
						"node":7,
						"path":"translation"
					}
				}
			],
			"name":"Mesh_0.008Action",
			"samplers":[
				{
					"input":45,
					"interpolation":"LINEAR",
					"output":46
				}
			]
		},
		{
			"channels":[
				{
					"sampler":0,
					"target":{
						"node":8,
						"path":"translation"
					}
				}
			],
			"name":"Mesh_0.009Action.003",
			"samplers":[
				{
					"input":47,
					"interpolation":"LINEAR",
					"output":48
				}
			]
		}
	],
	"materials":[
		{
			"doubleSided":true,
			"name":"Material_0",
			"pbrMetallicRoughness":{
				"baseColorFactor":[
					1,
					0.11697061359882355,
					0.2874409556388855,
					1
				],
				"metallicFactor":0.1599999964237213,
				"roughnessFactor":0.2041948288679123
			}
		},
		{
			"doubleSided":true,
			"name":"Material_0.001",
			"pbrMetallicRoughness":{
				"baseColorFactor":[
					1,
					0.11697061359882355,
					0.2874409556388855,
					1
				],
				"metallicFactor":0.1599999964237213,
				"roughnessFactor":0.2041948288679123
			}
		},
		{
			"doubleSided":true,
			"name":"Material_0.002",
			"pbrMetallicRoughness":{
				"baseColorFactor":[
					1,
					0.11697061359882355,
					0.2874409556388855,
					1
				],
				"metallicFactor":0.1599999964237213,
				"roughnessFactor":0.2041948288679123
			}
		},
		{
			"doubleSided":true,
			"name":"Material_0.003",
			"pbrMetallicRoughness":{
				"baseColorFactor":[
					1,
					0.11697061359882355,
					0.2874409556388855,
					1
				],
				"metallicFactor":0.1599999964237213,
				"roughnessFactor":0.2041948288679123
			}
		},
		{
			"doubleSided":true,
			"name":"Material_0.004",
			"pbrMetallicRoughness":{
				"baseColorFactor":[
					1,
					0.11697061359882355,
					0.2874409556388855,
					1
				],
				"metallicFactor":0.1599999964237213,
				"roughnessFactor":0.2041948288679123
			}
		},
		{
			"doubleSided":true,
			"name":"Material_0.005",
			"pbrMetallicRoughness":{
				"baseColorFactor":[
					1,
					0.11697061359882355,
					0.2874409556388855,
					1
				],
				"metallicFactor":0.1599999964237213,
				"roughnessFactor":0.2041948288679123
			}
		},
		{
			"doubleSided":true,
			"name":"Material_0.006",
			"pbrMetallicRoughness":{
				"baseColorFactor":[
					1,
					0.11697061359882355,
					0.2874409556388855,
					1
				],
				"metallicFactor":0.1599999964237213,
				"roughnessFactor":0.2041948288679123
			}
		},
		{
			"doubleSided":true,
			"name":"Material_0.008",
			"pbrMetallicRoughness":{
				"baseColorFactor":[
					1,
					0.11697061359882355,
					0.2874409556388855,
					1
				],
				"metallicFactor":0.1599999964237213,
				"roughnessFactor":0.2041948288679123
			}
		},
		{
			"doubleSided":true,
			"name":"Material_0.020",
			"pbrMetallicRoughness":{
				"baseColorFactor":[
					1,
					0.11697061359882355,
					0.2874409556388855,
					1
				],
				"metallicFactor":0.1662091612815857,
				"roughnessFactor":0.20162583887577057
			}
		}
	],
	"meshes":[
		{
			"name":"Mesh_0",
			"primitives":[
				{
					"attributes":{
						"POSITION":0,
						"NORMAL":1,
						"TEXCOORD_0":2
					},
					"indices":3,
					"material":0
				}
			]
		},
		{
			"name":"Mesh_0.001",
			"primitives":[
				{
					"attributes":{
						"POSITION":4,
						"NORMAL":5,
						"TEXCOORD_0":6
					},
					"indices":7,
					"material":1
				}
			]
		},
		{
			"name":"Mesh_0.002",
			"primitives":[
				{
					"attributes":{
						"POSITION":8,
						"NORMAL":9,
						"TEXCOORD_0":10
					},
					"indices":11,
					"material":2
				}
			]
		},
		{
			"name":"Mesh_0.003",
			"primitives":[
				{
					"attributes":{
						"POSITION":12,
						"NORMAL":13,
						"TEXCOORD_0":14
					},
					"indices":15,
					"material":3
				}
			]
		},
		{
			"name":"Mesh_0.004",
			"primitives":[
				{
					"attributes":{
						"POSITION":16,
						"NORMAL":17,
						"TEXCOORD_0":18
					},
					"indices":3,
					"material":4
				}
			]
		},
		{
			"name":"Mesh_0.005",
			"primitives":[
				{
					"attributes":{
						"POSITION":19,
						"NORMAL":20,
						"TEXCOORD_0":21
					},
					"indices":22,
					"material":5
				}
			]
		},
		{
			"name":"Mesh_0.006",
			"primitives":[
				{
					"attributes":{
						"POSITION":23,
						"NORMAL":24,
						"TEXCOORD_0":25
					},
					"indices":26,
					"material":6
				}
			]
		},
		{
			"name":"Mesh_0.008",
			"primitives":[
				{
					"attributes":{
						"POSITION":27,
						"NORMAL":28,
						"TEXCOORD_0":29
					},
					"indices":30,
					"material":7
				}
			]
		},
		{
			"name":"Mesh_0.020",
			"primitives":[
				{
					"attributes":{
						"POSITION":31,
						"NORMAL":32,
						"TEXCOORD_0":33
					},
					"indices":34,
					"material":8
				}
			]
		}
	],
	"accessors":[
		{
			"bufferView":0,
			"componentType":5126,
			"count":9924,
			"max":[
				0.021375980228185654,
				0.030523858964443207,
				0.01672443188726902
			],
			"min":[
				-0.021375980228185654,
				-0.030523858964443207,
				-0.01672443188726902
			],
			"type":"VEC3"
		},
		{
			"bufferView":1,
			"componentType":5126,
			"count":9924,
			"type":"VEC3"
		},
		{
			"bufferView":2,
			"componentType":5126,
			"count":9924,
			"type":"VEC2"
		},
		{
			"bufferView":3,
			"componentType":5123,
			"count":48594,
			"type":"SCALAR"
		},
		{
			"bufferView":4,
			"componentType":5126,
			"count":10188,
			"max":[
				0.025784142315387726,
				0.030267398804426193,
				0.019741564989089966
			],
			"min":[
				-0.025784142315387726,
				-0.030267398804426193,
				-0.019741564989089966
			],
			"type":"VEC3"
		},
		{
			"bufferView":5,
			"componentType":5126,
			"count":10188,
			"type":"VEC3"
		},
		{
			"bufferView":6,
			"componentType":5126,
			"count":10188,
			"type":"VEC2"
		},
		{
			"bufferView":7,
			"componentType":5123,
			"count":50130,
			"type":"SCALAR"
		},
		{
			"bufferView":8,
			"componentType":5126,
			"count":9814,
			"max":[
				0.022569017484784126,
				0.030567238107323647,
				0.015654871240258217
			],
			"min":[
				-0.022569017484784126,
				-0.030567238107323647,
				-0.015654871240258217
			],
			"type":"VEC3"
		},
		{
			"bufferView":9,
			"componentType":5126,
			"count":9814,
			"type":"VEC3"
		},
		{
			"bufferView":10,
			"componentType":5126,
			"count":9814,
			"type":"VEC2"
		},
		{
			"bufferView":11,
			"componentType":5123,
			"count":48384,
			"type":"SCALAR"
		},
		{
			"bufferView":12,
			"componentType":5126,
			"count":10012,
			"max":[
				0.024065585806965828,
				0.03021540865302086,
				0.018140841275453568
			],
			"min":[
				-0.024065585806965828,
				-0.03021540865302086,
				-0.018140841275453568
			],
			"type":"VEC3"
		},
		{
			"bufferView":13,
			"componentType":5126,
			"count":10012,
			"type":"VEC3"
		},
		{
			"bufferView":14,
			"componentType":5126,
			"count":10012,
			"type":"VEC2"
		},
		{
			"bufferView":15,
			"componentType":5123,
			"count":49302,
			"type":"SCALAR"
		},
		{
			"bufferView":16,
			"componentType":5126,
			"count":9924,
			"max":[
				0.021375980228185654,
				0.030523858964443207,
				0.01672443188726902
			],
			"min":[
				-0.021375980228185654,
				-0.030523858964443207,
				-0.01672443188726902
			],
			"type":"VEC3"
		},
		{
			"bufferView":17,
			"componentType":5126,
			"count":9924,
			"type":"VEC3"
		},
		{
			"bufferView":18,
			"componentType":5126,
			"count":9924,
			"type":"VEC2"
		},
		{
			"bufferView":19,
			"componentType":5126,
			"count":9948,
			"max":[
				0.02639751322567463,
				0.02843528799712658,
				0.019233379513025284
			],
			"min":[
				-0.02639751322567463,
				-0.02843528799712658,
				-0.019233379513025284
			],
			"type":"VEC3"
		},
		{
			"bufferView":20,
			"componentType":5126,
			"count":9948,
			"type":"VEC3"
		},
		{
			"bufferView":21,
			"componentType":5126,
			"count":9948,
			"type":"VEC2"
		},
		{
			"bufferView":22,
			"componentType":5123,
			"count":49086,
			"type":"SCALAR"
		},
		{
			"bufferView":23,
			"componentType":5126,
			"count":9943,
			"max":[
				0.022844424471259117,
				0.03044978156685829,
				0.016726786270737648
			],
			"min":[
				-0.022844424471259117,
				-0.03044978156685829,
				-0.016726786270737648
			],
			"type":"VEC3"
		},
		{
			"bufferView":24,
			"componentType":5126,
			"count":9943,
			"type":"VEC3"
		},
		{
			"bufferView":25,
			"componentType":5126,
			"count":9943,
			"type":"VEC2"
		},
		{
			"bufferView":26,
			"componentType":5123,
			"count":49470,
			"type":"SCALAR"
		},
		{
			"bufferView":27,
			"componentType":5126,
			"count":8977,
			"max":[
				0.0163390152156353,
				0.029826907441020012,
				0.014822943136096
			],
			"min":[
				-0.0163390152156353,
				-0.029826907441020012,
				-0.014822943136096
			],
			"type":"VEC3"
		},
		{
			"bufferView":28,
			"componentType":5126,
			"count":8977,
			"type":"VEC3"
		},
		{
			"bufferView":29,
			"componentType":5126,
			"count":8977,
			"type":"VEC2"
		},
		{
			"bufferView":30,
			"componentType":5123,
			"count":45246,
			"type":"SCALAR"
		},
		{
			"bufferView":31,
			"componentType":5126,
			"count":10293,
			"max":[
				0.023797770962119102,
				0.030577553436160088,
				0.0111900195479393
			],
			"min":[
				-0.023797770962119102,
				-0.030577553436160088,
				-0.0111900195479393
			],
			"type":"VEC3"
		},
		{
			"bufferView":32,
			"componentType":5126,
			"count":10293,
			"type":"VEC3"
		},
		{
			"bufferView":33,
			"componentType":5126,
			"count":10293,
			"type":"VEC2"
		},
		{
			"bufferView":34,
			"componentType":5123,
			"count":49470,
			"type":"SCALAR"
		},
		{
			"bufferView":35,
			"componentType":5126,
			"count":12,
			"max":[
				0.4583333333333333
			],
			"min":[
				0
			],
			"type":"SCALAR"
		},
		{
			"bufferView":36,
			"componentType":5126,
			"count":12,
			"type":"VEC3"
		},
		{
			"bufferView":37,
			"componentType":5126,
			"count":4,
			"max":[
				0.125
			],
			"min":[
				0
			],
			"type":"SCALAR"
		},
		{
			"bufferView":38,
			"componentType":5126,
			"count":4,
			"type":"VEC3"
		},
		{
			"bufferView":39,
			"componentType":5126,
			"count":4,
			"type":"VEC3"
		},
		{
			"bufferView":40,
			"componentType":5126,
			"count":4,
			"type":"VEC3"
		},
		{
			"bufferView":41,
			"componentType":5126,
			"count":7,
			"max":[
				0.25
			],
			"min":[
				0
			],
			"type":"SCALAR"
		},
		{
			"bufferView":42,
			"componentType":5126,
			"count":7,
			"type":"VEC3"
		},
		{
			"bufferView":43,
			"componentType":5126,
			"count":7,
			"type":"VEC3"
		},
		{
			"bufferView":44,
			"componentType":5126,
			"count":4,
			"type":"VEC3"
		},
		{
			"bufferView":45,
			"componentType":5126,
			"count":3,
			"max":[
				0.125
			],
			"min":[
				0.041666666666666664
			],
			"type":"SCALAR"
		},
		{
			"bufferView":46,
			"componentType":5126,
			"count":3,
			"type":"VEC3"
		},
		{
			"bufferView":47,
			"componentType":5126,
			"count":13,
			"max":[
				0.5
			],
			"min":[
				0
			],
			"type":"SCALAR"
		},
		{
			"bufferView":48,
			"componentType":5126,
			"count":13,
			"type":"VEC3"
		}
	],
	"bufferViews":[
		{
			"buffer":0,
			"byteLength":119088,
			"byteOffset":0,
			"target":34962
		},
		{
			"buffer":0,
			"byteLength":119088,
			"byteOffset":119088,
			"target":34962
		},
		{
			"buffer":0,
			"byteLength":79392,
			"byteOffset":238176,
			"target":34962
		},
		{
			"buffer":0,
			"byteLength":97188,
			"byteOffset":317568,
			"target":34963
		},
		{
			"buffer":0,
			"byteLength":122256,
			"byteOffset":414756,
			"target":34962
		},
		{
			"buffer":0,
			"byteLength":122256,
			"byteOffset":537012,
			"target":34962
		},
		{
			"buffer":0,
			"byteLength":81504,
			"byteOffset":659268,
			"target":34962
		},
		{
			"buffer":0,
			"byteLength":100260,
			"byteOffset":740772,
			"target":34963
		},
		{
			"buffer":0,
			"byteLength":117768,
			"byteOffset":841032,
			"target":34962
		},
		{
			"buffer":0,
			"byteLength":117768,
			"byteOffset":958800,
			"target":34962
		},
		{
			"buffer":0,
			"byteLength":78512,
			"byteOffset":1076568,
			"target":34962
		},
		{
			"buffer":0,
			"byteLength":96768,
			"byteOffset":1155080,
			"target":34963
		},
		{
			"buffer":0,
			"byteLength":120144,
			"byteOffset":1251848,
			"target":34962
		},
		{
			"buffer":0,
			"byteLength":120144,
			"byteOffset":1371992,
			"target":34962
		},
		{
			"buffer":0,
			"byteLength":80096,
			"byteOffset":1492136,
			"target":34962
		},
		{
			"buffer":0,
			"byteLength":98604,
			"byteOffset":1572232,
			"target":34963
		},
		{
			"buffer":0,
			"byteLength":119088,
			"byteOffset":1670836,
			"target":34962
		},
		{
			"buffer":0,
			"byteLength":119088,
			"byteOffset":1789924,
			"target":34962
		},
		{
			"buffer":0,
			"byteLength":79392,
			"byteOffset":1909012,
			"target":34962
		},
		{
			"buffer":0,
			"byteLength":119376,
			"byteOffset":1988404,
			"target":34962
		},
		{
			"buffer":0,
			"byteLength":119376,
			"byteOffset":2107780,
			"target":34962
		},
		{
			"buffer":0,
			"byteLength":79584,
			"byteOffset":2227156,
			"target":34962
		},
		{
			"buffer":0,
			"byteLength":98172,
			"byteOffset":2306740,
			"target":34963
		},
		{
			"buffer":0,
			"byteLength":119316,
			"byteOffset":2404912,
			"target":34962
		},
		{
			"buffer":0,
			"byteLength":119316,
			"byteOffset":2524228,
			"target":34962
		},
		{
			"buffer":0,
			"byteLength":79544,
			"byteOffset":2643544,
			"target":34962
		},
		{
			"buffer":0,
			"byteLength":98940,
			"byteOffset":2723088,
			"target":34963
		},
		{
			"buffer":0,
			"byteLength":107724,
			"byteOffset":2822028,
			"target":34962
		},
		{
			"buffer":0,
			"byteLength":107724,
			"byteOffset":2929752,
			"target":34962
		},
		{
			"buffer":0,
			"byteLength":71816,
			"byteOffset":3037476,
			"target":34962
		},
		{
			"buffer":0,
			"byteLength":90492,
			"byteOffset":3109292,
			"target":34963
		},
		{
			"buffer":0,
			"byteLength":123516,
			"byteOffset":3199784,
			"target":34962
		},
		{
			"buffer":0,
			"byteLength":123516,
			"byteOffset":3323300,
			"target":34962
		},
		{
			"buffer":0,
			"byteLength":82344,
			"byteOffset":3446816,
			"target":34962
		},
		{
			"buffer":0,
			"byteLength":98940,
			"byteOffset":3529160,
			"target":34963
		},
		{
			"buffer":0,
			"byteLength":48,
			"byteOffset":3628100
		},
		{
			"buffer":0,
			"byteLength":144,
			"byteOffset":3628148
		},
		{
			"buffer":0,
			"byteLength":16,
			"byteOffset":3628292
		},
		{
			"buffer":0,
			"byteLength":48,
			"byteOffset":3628308
		},
		{
			"buffer":0,
			"byteLength":48,
			"byteOffset":3628356
		},
		{
			"buffer":0,
			"byteLength":48,
			"byteOffset":3628404
		},
		{
			"buffer":0,
			"byteLength":28,
			"byteOffset":3628452
		},
		{
			"buffer":0,
			"byteLength":84,
			"byteOffset":3628480
		},
		{
			"buffer":0,
			"byteLength":84,
			"byteOffset":3628564
		},
		{
			"buffer":0,
			"byteLength":48,
			"byteOffset":3628648
		},
		{
			"buffer":0,
			"byteLength":12,
			"byteOffset":3628696
		},
		{
			"buffer":0,
			"byteLength":36,
			"byteOffset":3628708
		},
		{
			"buffer":0,
			"byteLength":52,
			"byteOffset":3628744
		},
		{
			"buffer":0,
			"byteLength":156,
			"byteOffset":3628796
		}
	],
	"buffers":[
		{
			"byteLength":3628952,
			"uri":"beeniruda3D.bin"
		}
	]
}
