{
	"asset":{
		"generator":"Khronos glTF Blender I/O v4.1.62",
		"version":"2.0"
	},
	"scene":0,
	"scenes":[
		{
			"name":"Scene",
			"nodes":[
				0,
				1,
				2,
				3,
				4,
				5,
				6,
				7,
				8
			]
		}
	],
	"nodes":[
		{
			"mesh":0,
			"name":"Mesh_0.021",
			"translation":[
				0.0009048841893672943,
				0,
				0
			]
		},
		{
			"mesh":1,
			"name":"Mesh_0.022",
			"translation":[
				-0.12030677497386932,
				0,
				0
			]
		},
		{
			"mesh":2,
			"name":"Mesh_0.023",
			"translation":[
				-0.027277495712041855,
				0,
				0
			]
		},
		{
			"mesh":3,
			"name":"Mesh_0.024",
			"translation":[
				0.05730859935283661,
				0,
				0
			]
		},
		{
			"mesh":4,
			"name":"Mesh_0.025",
			"translation":[
				0.03024611622095108,
				0,
				0
			]
		},
		{
			"mesh":5,
			"name":"Mesh_0.026",
			"translation":[
				-0.0501091405749321,
				0,
				0
			]
		},
		{
			"mesh":6,
			"name":"Mesh_0.027",
			"translation":[
				-0.08628175407648087,
				0,
				0
			]
		},
		{
			"mesh":7,
			"name":"Mesh_0.028",
			"translation":[
				0.08468862622976303,
				0,
				0
			]
		},
		{
			"mesh":8,
			"name":"Mesh_0.029",
			"translation":[
				-0.15594269335269928,
				0.010253471322357655,
				0.006051159463822842
			]
		}
	],
	"animations":[
		{
			"channels":[
				{
					"sampler":0,
					"target":{
						"node":0,
						"path":"translation"
					}
				}
			],
			"name":"Mesh_0.021Action",
			"samplers":[
				{
					"input":34,
					"interpolation":"LINEAR",
					"output":35
				}
			]
		},
		{
			"channels":[
				{
					"sampler":0,
					"target":{
						"node":1,
						"path":"translation"
					}
				}
			],
			"name":"Mesh_0.022Action",
			"samplers":[
				{
					"input":36,
					"interpolation":"LINEAR",
					"output":37
				}
			]
		},
		{
			"channels":[
				{
					"sampler":0,
					"target":{
						"node":2,
						"path":"translation"
					}
				}
			],
			"name":"Mesh_0.023Action",
			"samplers":[
				{
					"input":38,
					"interpolation":"LINEAR",
					"output":39
				}
			]
		},
		{
			"channels":[
				{
					"sampler":0,
					"target":{
						"node":3,
						"path":"translation"
					}
				}
			],
			"name":"Mesh_0.024Action",
			"samplers":[
				{
					"input":40,
					"interpolation":"LINEAR",
					"output":41
				}
			]
		},
		{
			"channels":[
				{
					"sampler":0,
					"target":{
						"node":4,
						"path":"translation"
					}
				}
			],
			"name":"Mesh_0.025Action",
			"samplers":[
				{
					"input":42,
					"interpolation":"LINEAR",
					"output":43
				}
			]
		},
		{
			"channels":[
				{
					"sampler":0,
					"target":{
						"node":5,
						"path":"translation"
					}
				}
			],
			"name":"Mesh_0.026Action",
			"samplers":[
				{
					"input":44,
					"interpolation":"LINEAR",
					"output":45
				}
			]
		},
		{
			"channels":[
				{
					"sampler":0,
					"target":{
						"node":6,
						"path":"translation"
					}
				}
			],
			"name":"Mesh_0.027Action",
			"samplers":[
				{
					"input":46,
					"interpolation":"LINEAR",
					"output":47
				}
			]
		},
		{
			"channels":[
				{
					"sampler":0,
					"target":{
						"node":7,
						"path":"translation"
					}
				}
			],
			"name":"Mesh_0.028Action",
			"samplers":[
				{
					"input":48,
					"interpolation":"LINEAR",
					"output":49
				}
			]
		},
		{
			"channels":[
				{
					"sampler":0,
					"target":{
						"node":8,
						"path":"translation"
					}
				}
			],
			"name":"Mesh_0.029Action",
			"samplers":[
				{
					"input":50,
					"interpolation":"LINEAR",
					"output":51
				}
			]
		}
	],
	"materials":[
		{
			"doubleSided":true,
			"name":"Material_0.021",
			"normalTexture":{
				"index":0
			},
			"occlusionTexture":{
				"index":1
			},
			"pbrMetallicRoughness":{
				"baseColorTexture":{
					"index":2
				},
				"metallicRoughnessTexture":{
					"index":1
				}
			}
		},
		{
			"doubleSided":true,
			"name":"Material_0.022",
			"normalTexture":{
				"index":3
			},
			"occlusionTexture":{
				"index":4
			},
			"pbrMetallicRoughness":{
				"baseColorTexture":{
					"index":5
				},
				"metallicRoughnessTexture":{
					"index":4
				}
			}
		},
		{
			"doubleSided":true,
			"name":"Material_0.023",
			"normalTexture":{
				"index":6
			},
			"occlusionTexture":{
				"index":7
			},
			"pbrMetallicRoughness":{
				"baseColorTexture":{
					"index":8
				},
				"metallicRoughnessTexture":{
					"index":7
				}
			}
		},
		{
			"doubleSided":true,
			"name":"Material_0.024",
			"normalTexture":{
				"index":9
			},
			"occlusionTexture":{
				"index":10
			},
			"pbrMetallicRoughness":{
				"baseColorTexture":{
					"index":11
				},
				"metallicRoughnessTexture":{
					"index":10
				}
			}
		},
		{
			"doubleSided":true,
			"name":"Material_0.025",
			"normalTexture":{
				"index":12
			},
			"occlusionTexture":{
				"index":13
			},
			"pbrMetallicRoughness":{
				"baseColorTexture":{
					"index":14
				},
				"metallicRoughnessTexture":{
					"index":13
				}
			}
		},
		{
			"doubleSided":true,
			"name":"Material_0.026",
			"normalTexture":{
				"index":15
			},
			"occlusionTexture":{
				"index":16
			},
			"pbrMetallicRoughness":{
				"baseColorTexture":{
					"index":17
				},
				"metallicRoughnessTexture":{
					"index":16
				}
			}
		},
		{
			"doubleSided":true,
			"name":"Material_0.027",
			"normalTexture":{
				"index":18
			},
			"occlusionTexture":{
				"index":19
			},
			"pbrMetallicRoughness":{
				"baseColorTexture":{
					"index":20
				},
				"metallicRoughnessTexture":{
					"index":19
				}
			}
		},
		{
			"doubleSided":true,
			"name":"Material_0.028",
			"normalTexture":{
				"index":21
			},
			"occlusionTexture":{
				"index":22
			},
			"pbrMetallicRoughness":{
				"baseColorTexture":{
					"index":23
				},
				"metallicRoughnessTexture":{
					"index":22
				}
			}
		},
		{
			"doubleSided":true,
			"name":"Material_0.029",
			"normalTexture":{
				"index":24
			},
			"occlusionTexture":{
				"index":25
			},
			"pbrMetallicRoughness":{
				"baseColorTexture":{
					"index":26
				},
				"metallicRoughnessTexture":{
					"index":25
				}
			}
		}
	],
	"meshes":[
		{
			"name":"Mesh_0.021",
			"primitives":[
				{
					"attributes":{
						"POSITION":0,
						"NORMAL":1,
						"TEXCOORD_0":2
					},
					"indices":3,
					"material":0
				}
			]
		},
		{
			"name":"Mesh_0.022",
			"primitives":[
				{
					"attributes":{
						"POSITION":4,
						"NORMAL":5,
						"TEXCOORD_0":6
					},
					"indices":3,
					"material":1
				}
			]
		},
		{
			"name":"Mesh_0.023",
			"primitives":[
				{
					"attributes":{
						"POSITION":7,
						"NORMAL":8,
						"TEXCOORD_0":9
					},
					"indices":10,
					"material":2
				}
			]
		},
		{
			"name":"Mesh_0.024",
			"primitives":[
				{
					"attributes":{
						"POSITION":11,
						"NORMAL":12,
						"TEXCOORD_0":13
					},
					"indices":14,
					"material":3
				}
			]
		},
		{
			"name":"Mesh_0.025",
			"primitives":[
				{
					"attributes":{
						"POSITION":15,
						"NORMAL":16,
						"TEXCOORD_0":17
					},
					"indices":18,
					"material":4
				}
			]
		},
		{
			"name":"Mesh_0.026",
			"primitives":[
				{
					"attributes":{
						"POSITION":19,
						"NORMAL":20,
						"TEXCOORD_0":21
					},
					"indices":22,
					"material":5
				}
			]
		},
		{
			"name":"Mesh_0.027",
			"primitives":[
				{
					"attributes":{
						"POSITION":23,
						"NORMAL":24,
						"TEXCOORD_0":25
					},
					"indices":26,
					"material":6
				}
			]
		},
		{
			"name":"Mesh_0.028",
			"primitives":[
				{
					"attributes":{
						"POSITION":27,
						"NORMAL":28,
						"TEXCOORD_0":29
					},
					"indices":3,
					"material":7
				}
			]
		},
		{
			"name":"Mesh_0.029",
			"primitives":[
				{
					"attributes":{
						"POSITION":30,
						"NORMAL":31,
						"TEXCOORD_0":32
					},
					"indices":33,
					"material":8
				}
			]
		}
	],
	"textures":[
		{
			"sampler":0,
			"source":0
		},
		{
			"sampler":0,
			"source":1
		},
		{
			"sampler":0,
			"source":2
		},
		{
			"sampler":0,
			"source":0
		},
		{
			"sampler":0,
			"source":1
		},
		{
			"sampler":0,
			"source":2
		},
		{
			"sampler":0,
			"source":0
		},
		{
			"sampler":0,
			"source":1
		},
		{
			"sampler":0,
			"source":2
		},
		{
			"sampler":0,
			"source":0
		},
		{
			"sampler":0,
			"source":1
		},
		{
			"sampler":0,
			"source":2
		},
		{
			"sampler":0,
			"source":0
		},
		{
			"sampler":0,
			"source":1
		},
		{
			"sampler":0,
			"source":2
		},
		{
			"sampler":0,
			"source":0
		},
		{
			"sampler":0,
			"source":1
		},
		{
			"sampler":0,
			"source":2
		},
		{
			"sampler":0,
			"source":0
		},
		{
			"sampler":0,
			"source":1
		},
		{
			"sampler":0,
			"source":2
		},
		{
			"sampler":0,
			"source":0
		},
		{
			"sampler":0,
			"source":1
		},
		{
			"sampler":0,
			"source":2
		},
		{
			"sampler":0,
			"source":0
		},
		{
			"sampler":0,
			"source":1
		},
		{
			"sampler":0,
			"source":2
		}
	],
	"images":[
		{
			"mimeType":"image/png",
			"name":"Normal",
			"uri":"Normal.png"
		},
		{
			"mimeType":"image/png",
			"name":"AO-MetallicRoughness",
			"uri":"AO-MetallicRoughness.png"
		},
		{
			"mimeType":"image/png",
			"name":"BaseColor",
			"uri":"BaseColor.png"
		}
	],
	"accessors":[
		{
			"bufferView":0,
			"componentType":5126,
			"count":9703,
			"max":[
				0.021567251533269882,
				0.02790369838476181,
				0.015561114996671677
			],
			"min":[
				-0.021567251533269882,
				-0.02790369838476181,
				-0.015561114996671677
			],
			"type":"VEC3"
		},
		{
			"bufferView":1,
			"componentType":5126,
			"count":9703,
			"type":"VEC3"
		},
		{
			"bufferView":2,
			"componentType":5126,
			"count":9703,
			"type":"VEC2"
		},
		{
			"bufferView":3,
			"componentType":5123,
			"count":48072,
			"type":"SCALAR"
		},
		{
			"bufferView":4,
			"componentType":5126,
			"count":9703,
			"max":[
				0.021567251533269882,
				0.02790369838476181,
				0.015561114996671677
			],
			"min":[
				-0.021567251533269882,
				-0.02790369838476181,
				-0.015561114996671677
			],
			"type":"VEC3"
		},
		{
			"bufferView":5,
			"componentType":5126,
			"count":9703,
			"type":"VEC3"
		},
		{
			"bufferView":6,
			"componentType":5126,
			"count":9703,
			"type":"VEC2"
		},
		{
			"bufferView":7,
			"componentType":5126,
			"count":9725,
			"max":[
				0.019549570977687836,
				0.027205081656575203,
				0.014615224674344063
			],
			"min":[
				-0.019549570977687836,
				-0.027205081656575203,
				-0.014615224674344063
			],
			"type":"VEC3"
		},
		{
			"bufferView":8,
			"componentType":5126,
			"count":9725,
			"type":"VEC3"
		},
		{
			"bufferView":9,
			"componentType":5126,
			"count":9725,
			"type":"VEC2"
		},
		{
			"bufferView":10,
			"componentType":5123,
			"count":48042,
			"type":"SCALAR"
		},
		{
			"bufferView":11,
			"componentType":5126,
			"count":9017,
			"max":[
				0.01474754884839058,
				0.026921840384602547,
				0.013768804259598255
			],
			"min":[
				-0.01474754884839058,
				-0.026921840384602547,
				-0.013768804259598255
			],
			"type":"VEC3"
		},
		{
			"bufferView":12,
			"componentType":5126,
			"count":9017,
			"type":"VEC3"
		},
		{
			"bufferView":13,
			"componentType":5126,
			"count":9017,
			"type":"VEC2"
		},
		{
			"bufferView":14,
			"componentType":5123,
			"count":45246,
			"type":"SCALAR"
		},
		{
			"bufferView":15,
			"componentType":5126,
			"count":9443,
			"max":[
				0.015775317326188087,
				0.026866760104894638,
				0.014591289684176445
			],
			"min":[
				-0.015775317326188087,
				-0.026866760104894638,
				-0.014591289684176445
			],
			"type":"VEC3"
		},
		{
			"bufferView":16,
			"componentType":5126,
			"count":9443,
			"type":"VEC3"
		},
		{
			"bufferView":17,
			"componentType":5126,
			"count":9443,
			"type":"VEC2"
		},
		{
			"bufferView":18,
			"componentType":5123,
			"count":46950,
			"type":"SCALAR"
		},
		{
			"bufferView":19,
			"componentType":5126,
			"count":9488,
			"max":[
				0.018286876380443573,
				0.0281109269708395,
				0.015947775915265083
			],
			"min":[
				-0.018286876380443573,
				-0.0281109269708395,
				-0.015947775915265083
			],
			"type":"VEC3"
		},
		{
			"bufferView":20,
			"componentType":5126,
			"count":9488,
			"type":"VEC3"
		},
		{
			"bufferView":21,
			"componentType":5126,
			"count":9488,
			"type":"VEC2"
		},
		{
			"bufferView":22,
			"componentType":5123,
			"count":46776,
			"type":"SCALAR"
		},
		{
			"bufferView":23,
			"componentType":5126,
			"count":10071,
			"max":[
				0.021721594035625458,
				0.027272682636976242,
				0.01676359958946705
			],
			"min":[
				-0.021721594035625458,
				-0.027272682636976242,
				-0.01676359958946705
			],
			"type":"VEC3"
		},
		{
			"bufferView":24,
			"componentType":5126,
			"count":10071,
			"type":"VEC3"
		},
		{
			"bufferView":25,
			"componentType":5126,
			"count":10071,
			"type":"VEC2"
		},
		{
			"bufferView":26,
			"componentType":5123,
			"count":49302,
			"type":"SCALAR"
		},
		{
			"bufferView":27,
			"componentType":5126,
			"count":9703,
			"max":[
				0.021567251533269882,
				0.02790369838476181,
				0.015561114996671677
			],
			"min":[
				-0.021567251533269882,
				-0.02790369838476181,
				-0.015561114996671677
			],
			"type":"VEC3"
		},
		{
			"bufferView":28,
			"componentType":5126,
			"count":9703,
			"type":"VEC3"
		},
		{
			"bufferView":29,
			"componentType":5126,
			"count":9703,
			"type":"VEC2"
		},
		{
			"bufferView":30,
			"componentType":5126,
			"count":9557,
			"max":[
				0.02232266217470169,
				0.028590040281414986,
				0.01494615525007248
			],
			"min":[
				-0.02232266217470169,
				-0.028590040281414986,
				-0.01494615525007248
			],
			"type":"VEC3"
		},
		{
			"bufferView":31,
			"componentType":5126,
			"count":9557,
			"type":"VEC3"
		},
		{
			"bufferView":32,
			"componentType":5126,
			"count":9557,
			"type":"VEC2"
		},
		{
			"bufferView":33,
			"componentType":5123,
			"count":47538,
			"type":"SCALAR"
		},
		{
			"bufferView":34,
			"componentType":5126,
			"count":13,
			"max":[
				0.5
			],
			"min":[
				0
			],
			"type":"SCALAR"
		},
		{
			"bufferView":35,
			"componentType":5126,
			"count":13,
			"type":"VEC3"
		},
		{
			"bufferView":36,
			"componentType":5126,
			"count":5,
			"max":[
				0.16666666666666666
			],
			"min":[
				0
			],
			"type":"SCALAR"
		},
		{
			"bufferView":37,
			"componentType":5126,
			"count":5,
			"type":"VEC3"
		},
		{
			"bufferView":38,
			"componentType":5126,
			"count":11,
			"max":[
				0.4166666666666667
			],
			"min":[
				0
			],
			"type":"SCALAR"
		},
		{
			"bufferView":39,
			"componentType":5126,
			"count":11,
			"type":"VEC3"
		},
		{
			"bufferView":40,
			"componentType":5126,
			"count":17,
			"max":[
				0.6666666666666666
			],
			"min":[
				0
			],
			"type":"SCALAR"
		},
		{
			"bufferView":41,
			"componentType":5126,
			"count":17,
			"type":"VEC3"
		},
		{
			"bufferView":42,
			"componentType":5126,
			"count":15,
			"max":[
				0.5833333333333334
			],
			"min":[
				0
			],
			"type":"SCALAR"
		},
		{
			"bufferView":43,
			"componentType":5126,
			"count":15,
			"type":"VEC3"
		},
		{
			"bufferView":44,
			"componentType":5126,
			"count":9,
			"max":[
				0.3333333333333333
			],
			"min":[
				0
			],
			"type":"SCALAR"
		},
		{
			"bufferView":45,
			"componentType":5126,
			"count":9,
			"type":"VEC3"
		},
		{
			"bufferView":46,
			"componentType":5126,
			"count":7,
			"max":[
				0.25
			],
			"min":[
				0
			],
			"type":"SCALAR"
		},
		{
			"bufferView":47,
			"componentType":5126,
			"count":7,
			"type":"VEC3"
		},
		{
			"bufferView":48,
			"componentType":5126,
			"count":18,
			"max":[
				0.7083333333333334
			],
			"min":[
				0
			],
			"type":"SCALAR"
		},
		{
			"bufferView":49,
			"componentType":5126,
			"count":18,
			"type":"VEC3"
		},
		{
			"bufferView":50,
			"componentType":5126,
			"count":3,
			"max":[
				0.08333333333333333
			],
			"min":[
				0
			],
			"type":"SCALAR"
		},
		{
			"bufferView":51,
			"componentType":5126,
			"count":3,
			"type":"VEC3"
		}
	],
	"bufferViews":[
		{
			"buffer":0,
			"byteLength":116436,
			"byteOffset":0,
			"target":34962
		},
		{
			"buffer":0,
			"byteLength":116436,
			"byteOffset":116436,
			"target":34962
		},
		{
			"buffer":0,
			"byteLength":77624,
			"byteOffset":232872,
			"target":34962
		},
		{
			"buffer":0,
			"byteLength":96144,
			"byteOffset":310496,
			"target":34963
		},
		{
			"buffer":0,
			"byteLength":116436,
			"byteOffset":406640,
			"target":34962
		},
		{
			"buffer":0,
			"byteLength":116436,
			"byteOffset":523076,
			"target":34962
		},
		{
			"buffer":0,
			"byteLength":77624,
			"byteOffset":639512,
			"target":34962
		},
		{
			"buffer":0,
			"byteLength":116700,
			"byteOffset":717136,
			"target":34962
		},
		{
			"buffer":0,
			"byteLength":116700,
			"byteOffset":833836,
			"target":34962
		},
		{
			"buffer":0,
			"byteLength":77800,
			"byteOffset":950536,
			"target":34962
		},
		{
			"buffer":0,
			"byteLength":96084,
			"byteOffset":1028336,
			"target":34963
		},
		{
			"buffer":0,
			"byteLength":108204,
			"byteOffset":1124420,
			"target":34962
		},
		{
			"buffer":0,
			"byteLength":108204,
			"byteOffset":1232624,
			"target":34962
		},
		{
			"buffer":0,
			"byteLength":72136,
			"byteOffset":1340828,
			"target":34962
		},
		{
			"buffer":0,
			"byteLength":90492,
			"byteOffset":1412964,
			"target":34963
		},
		{
			"buffer":0,
			"byteLength":113316,
			"byteOffset":1503456,
			"target":34962
		},
		{
			"buffer":0,
			"byteLength":113316,
			"byteOffset":1616772,
			"target":34962
		},
		{
			"buffer":0,
			"byteLength":75544,
			"byteOffset":1730088,
			"target":34962
		},
		{
			"buffer":0,
			"byteLength":93900,
			"byteOffset":1805632,
			"target":34963
		},
		{
			"buffer":0,
			"byteLength":113856,
			"byteOffset":1899532,
			"target":34962
		},
		{
			"buffer":0,
			"byteLength":113856,
			"byteOffset":2013388,
			"target":34962
		},
		{
			"buffer":0,
			"byteLength":75904,
			"byteOffset":2127244,
			"target":34962
		},
		{
			"buffer":0,
			"byteLength":93552,
			"byteOffset":2203148,
			"target":34963
		},
		{
			"buffer":0,
			"byteLength":120852,
			"byteOffset":2296700,
			"target":34962
		},
		{
			"buffer":0,
			"byteLength":120852,
			"byteOffset":2417552,
			"target":34962
		},
		{
			"buffer":0,
			"byteLength":80568,
			"byteOffset":2538404,
			"target":34962
		},
		{
			"buffer":0,
			"byteLength":98604,
			"byteOffset":2618972,
			"target":34963
		},
		{
			"buffer":0,
			"byteLength":116436,
			"byteOffset":2717576,
			"target":34962
		},
		{
			"buffer":0,
			"byteLength":116436,
			"byteOffset":2834012,
			"target":34962
		},
		{
			"buffer":0,
			"byteLength":77624,
			"byteOffset":2950448,
			"target":34962
		},
		{
			"buffer":0,
			"byteLength":114684,
			"byteOffset":3028072,
			"target":34962
		},
		{
			"buffer":0,
			"byteLength":114684,
			"byteOffset":3142756,
			"target":34962
		},
		{
			"buffer":0,
			"byteLength":76456,
			"byteOffset":3257440,
			"target":34962
		},
		{
			"buffer":0,
			"byteLength":95076,
			"byteOffset":3333896,
			"target":34963
		},
		{
			"buffer":0,
			"byteLength":52,
			"byteOffset":3428972
		},
		{
			"buffer":0,
			"byteLength":156,
			"byteOffset":3429024
		},
		{
			"buffer":0,
			"byteLength":20,
			"byteOffset":3429180
		},
		{
			"buffer":0,
			"byteLength":60,
			"byteOffset":3429200
		},
		{
			"buffer":0,
			"byteLength":44,
			"byteOffset":3429260
		},
		{
			"buffer":0,
			"byteLength":132,
			"byteOffset":3429304
		},
		{
			"buffer":0,
			"byteLength":68,
			"byteOffset":3429436
		},
		{
			"buffer":0,
			"byteLength":204,
			"byteOffset":3429504
		},
		{
			"buffer":0,
			"byteLength":60,
			"byteOffset":3429708
		},
		{
			"buffer":0,
			"byteLength":180,
			"byteOffset":3429768
		},
		{
			"buffer":0,
			"byteLength":36,
			"byteOffset":3429948
		},
		{
			"buffer":0,
			"byteLength":108,
			"byteOffset":3429984
		},
		{
			"buffer":0,
			"byteLength":28,
			"byteOffset":3430092
		},
		{
			"buffer":0,
			"byteLength":84,
			"byteOffset":3430120
		},
		{
			"buffer":0,
			"byteLength":72,
			"byteOffset":3430204
		},
		{
			"buffer":0,
			"byteLength":216,
			"byteOffset":3430276
		},
		{
			"buffer":0,
			"byteLength":12,
			"byteOffset":3430492
		},
		{
			"buffer":0,
			"byteLength":36,
			"byteOffset":3430504
		}
	],
	"samplers":[
		{
			"magFilter":9729,
			"minFilter":9987
		}
	],
	"buffers":[
		{
			"byteLength":3430540,
			"uri":"portfolio3D.bin"
		}
	]
}
