{
	"asset":{
		"generator":"Khronos glTF Blender I/O v4.1.62",
		"version":"2.0"
	},
	"scene":0,
	"scenes":[
		{
			"name":"Scene",
			"nodes":[
				64,
				65,
				66
			]
		}
	],
	"nodes":[
		{
			"name":"transform7"
		},
		{
			"children":[
				0
			],
			"name":"polySurface1"
		},
		{
			"name":"transform22"
		},
		{
			"children":[
				2
			],
			"name":"polySurface10"
		},
		{
			"name":"transform19"
		},
		{
			"children":[
				4
			],
			"name":"polySurface11"
		},
		{
			"name":"transform20"
		},
		{
			"children":[
				6
			],
			"name":"polySurface12"
		},
		{
			"name":"transform21"
		},
		{
			"children":[
				8
			],
			"name":"polySurface13"
		},
		{
			"name":"transform11"
		},
		{
			"children":[
				10
			],
			"name":"polySurface14"
		},
		{
			"name":"transform12"
		},
		{
			"children":[
				12
			],
			"name":"polySurface15"
		},
		{
			"name":"transform13"
		},
		{
			"children":[
				14
			],
			"name":"polySurface16"
		},
		{
			"name":"transform2"
		},
		{
			"children":[
				16
			],
			"name":"polySurface17"
		},
		{
			"name":"transform4"
		},
		{
			"children":[
				18
			],
			"name":"polySurface18"
		},
		{
			"name":"transform3"
		},
		{
			"children":[
				20
			],
			"name":"polySurface19"
		},
		{
			"name":"transform6"
		},
		{
			"children":[
				22
			],
			"name":"polySurface2"
		},
		{
			"name":"transform18"
		},
		{
			"children":[
				24
			],
			"name":"polySurface20"
		},
		{
			"name":"transform17"
		},
		{
			"children":[
				26
			],
			"name":"polySurface21"
		},
		{
			"name":"transform16"
		},
		{
			"children":[
				28
			],
			"name":"polySurface22"
		},
		{
			"name":"transform15"
		},
		{
			"children":[
				30
			],
			"name":"polySurface23"
		},
		{
			"name":"transform14"
		},
		{
			"children":[
				32
			],
			"name":"polySurface24"
		},
		{
			"name":"transform25"
		},
		{
			"children":[
				34
			],
			"name":"polySurface25"
		},
		{
			"name":"transform26"
		},
		{
			"children":[
				36
			],
			"name":"polySurface26"
		},
		{
			"name":"transform27"
		},
		{
			"children":[
				38
			],
			"name":"polySurface27"
		},
		{
			"name":"transform9"
		},
		{
			"children":[
				40
			],
			"name":"polySurface28"
		},
		{
			"name":"transform5"
		},
		{
			"children":[
				42
			],
			"name":"polySurface3"
		},
		{
			"name":"transform23"
		},
		{
			"children":[
				44
			],
			"name":"polySurface4"
		},
		{
			"name":"transform24"
		},
		{
			"children":[
				46
			],
			"name":"polySurface5"
		},
		{
			"name":"transform31"
		},
		{
			"children":[
				48
			],
			"name":"polySurface6"
		},
		{
			"name":"transform30"
		},
		{
			"children":[
				50
			],
			"name":"polySurface7"
		},
		{
			"name":"transform28"
		},
		{
			"children":[
				52
			],
			"name":"polySurface8"
		},
		{
			"name":"transform29"
		},
		{
			"children":[
				54
			],
			"name":"polySurface9"
		},
		{
			"name":"transform1"
		},
		{
			"children":[
				1,
				3,
				5,
				7,
				9,
				11,
				13,
				15,
				17,
				19,
				21,
				23,
				25,
				27,
				29,
				31,
				33,
				35,
				37,
				39,
				41,
				43,
				45,
				47,
				49,
				51,
				53,
				55,
				56
			],
			"name":"Lowpoly_Notebook",
			"rotation":[
				-0.70710688829422,
				0,
				0,
				0.7071066498756409
			],
			"scale":[
				13.303778648376465,
				13.303781509399414,
				13.303781509399414
			],
			"translation":[
				0.19161804020404816,
				0.04303386062383652,
				0
			]
		},
		{
			"name":"transform10"
		},
		{
			"children":[
				58
			],
			"name":"polySurface1.001"
		},
		{
			"name":"transform8"
		},
		{
			"children":[
				60
			],
			"name":"polySurface18.001"
		},
		{
			"mesh":0,
			"name":"polySurface28.001"
		},
		{
			"mesh":1,
			"name":"polySurface6.001"
		},
		{
			"children":[
				57,
				59,
				61,
				62,
				63
			],
			"name":"notebook_model",
			"rotation":[
				0,
				0.9550756812095642,
				0,
				0.296362042427063
			],
			"translation":[
				0.3114278018474579,
				-0.024476872757077217,
				0.9164043664932251
			]
		},
		{
			"mesh":2,
			"name":"notebook_screen",
			"rotation":[
				-0.6264000535011292,
				0.3289130926132202,
				0.32956594228744507,
				0.6251603960990906
			],
			"translation":[
				0.14774468541145325,
				0.16297583281993866,
				0.8049798011779785
			]
		},
		{
			"name":"working_cam_n3d",
			"rotation":[
				0,
				0.9550756812095642,
				0,
				0.296362042427063
			],
			"translation":[
				0.2683585286140442,
				-0.001860717311501503,
				0.8866079449653625
			]
		}
	],
	"materials":[
		{
			"doubleSided":true,
			"name":"notebook_down",
			"pbrMetallicRoughness":{
				"baseColorTexture":{
					"index":0
				},
				"metallicFactor":0
			}
		},
		{
			"doubleSided":true,
			"name":"notebook_up",
			"pbrMetallicRoughness":{
				"baseColorTexture":{
					"index":1
				},
				"metallicFactor":0
			}
		}
	],
	"meshes":[
		{
			"name":"polySurface28",
			"primitives":[
				{
					"attributes":{
						"POSITION":0,
						"NORMAL":1,
						"TEXCOORD_0":2
					},
					"indices":3,
					"material":0
				}
			]
		},
		{
			"name":"polySurface6",
			"primitives":[
				{
					"attributes":{
						"POSITION":4,
						"NORMAL":5,
						"TEXCOORD_0":6
					},
					"indices":7,
					"material":1
				}
			]
		},
		{
			"name":"\ud050\ube0c",
			"primitives":[
				{
					"attributes":{
						"POSITION":8,
						"NORMAL":9,
						"TEXCOORD_0":10
					},
					"indices":11
				}
			]
		}
	],
	"textures":[
		{
			"sampler":0,
			"source":0
		},
		{
			"sampler":0,
			"source":1
		}
	],
	"images":[
		{
			"mimeType":"image/jpeg",
			"name":"Lowpoly_Laptop_2",
			"uri":"Lowpoly_Laptop_2.jpg"
		},
		{
			"mimeType":"image/jpeg",
			"name":"Lowpoly_Laptop_1",
			"uri":"Lowpoly_Laptop_1.jpg"
		}
	],
	"accessors":[
		{
			"bufferView":0,
			"componentType":5126,
			"count":139,
			"max":[
				0.1956375688314438,
				0.048148829489946365,
				0.21787460148334503
			],
			"min":[
				-0.09988635778427124,
				0.022616159170866013,
				-0.21751275658607483
			],
			"type":"VEC3"
		},
		{
			"bufferView":1,
			"componentType":5126,
			"count":139,
			"type":"VEC3"
		},
		{
			"bufferView":2,
			"componentType":5126,
			"count":139,
			"type":"VEC2"
		},
		{
			"bufferView":3,
			"componentType":5123,
			"count":300,
			"type":"SCALAR"
		},
		{
			"bufferView":4,
			"componentType":5126,
			"count":394,
			"max":[
				0.20462891459465027,
				0.33436474204063416,
				0.21717211604118347
			],
			"min":[
				0.1785387247800827,
				0.0355558805167675,
				-0.2167443484067917
			],
			"type":"VEC3"
		},
		{
			"bufferView":5,
			"componentType":5126,
			"count":394,
			"type":"VEC3"
		},
		{
			"bufferView":6,
			"componentType":5126,
			"count":394,
			"type":"VEC2"
		},
		{
			"bufferView":7,
			"componentType":5123,
			"count":531,
			"type":"SCALAR"
		},
		{
			"bufferView":8,
			"componentType":5126,
			"count":24,
			"max":[
				0.2022264450788498,
				0.002090547699481249,
				0.12794190645217896
			],
			"min":[
				-0.2022264450788498,
				-0.002090547699481249,
				-0.12794190645217896
			],
			"type":"VEC3"
		},
		{
			"bufferView":9,
			"componentType":5126,
			"count":24,
			"type":"VEC3"
		},
		{
			"bufferView":10,
			"componentType":5126,
			"count":24,
			"type":"VEC2"
		},
		{
			"bufferView":11,
			"componentType":5123,
			"count":36,
			"type":"SCALAR"
		}
	],
	"bufferViews":[
		{
			"buffer":0,
			"byteLength":1668,
			"byteOffset":0,
			"target":34962
		},
		{
			"buffer":0,
			"byteLength":1668,
			"byteOffset":1668,
			"target":34962
		},
		{
			"buffer":0,
			"byteLength":1112,
			"byteOffset":3336,
			"target":34962
		},
		{
			"buffer":0,
			"byteLength":600,
			"byteOffset":4448,
			"target":34963
		},
		{
			"buffer":0,
			"byteLength":4728,
			"byteOffset":5048,
			"target":34962
		},
		{
			"buffer":0,
			"byteLength":4728,
			"byteOffset":9776,
			"target":34962
		},
		{
			"buffer":0,
			"byteLength":3152,
			"byteOffset":14504,
			"target":34962
		},
		{
			"buffer":0,
			"byteLength":1062,
			"byteOffset":17656,
			"target":34963
		},
		{
			"buffer":0,
			"byteLength":288,
			"byteOffset":18720,
			"target":34962
		},
		{
			"buffer":0,
			"byteLength":288,
			"byteOffset":19008,
			"target":34962
		},
		{
			"buffer":0,
			"byteLength":192,
			"byteOffset":19296,
			"target":34962
		},
		{
			"buffer":0,
			"byteLength":72,
			"byteOffset":19488,
			"target":34963
		}
	],
	"samplers":[
		{
			"magFilter":9729,
			"minFilter":9987
		}
	],
	"buffers":[
		{
			"byteLength":19560,
			"uri":"Notebook3D.bin"
		}
	]
}
